<svg width="56" height="60" viewBox="0 0 56 60" fill="none" xmlns="http://www.w3.org/2000/svg">
<path d="M26.2498 25.6352C25.9905 25.6352 25.7127 25.5413 25.5089 25.3347L21.5084 21.2786C21.101 20.8654 21.101 20.2082 21.5084 19.795C21.9159 19.3819 22.5641 19.3819 22.9716 19.795L26.2313 23.1001L33.8804 15.3445C34.2878 14.9314 34.9361 14.9314 35.3435 15.3445C35.751 15.7576 35.751 16.4149 35.3435 16.828L26.9536 25.3347C26.7498 25.5413 26.4905 25.6352 26.2127 25.6352H26.2498Z" fill="#13123D"/>
<path d="M28.0093 34.2546C20.8046 34.2546 14.9335 28.3017 14.9335 20.9969C14.9335 13.692 20.8046 7.73919 28.0093 7.73919C35.2139 7.73919 41.085 13.692 41.085 20.9969C41.085 28.3017 35.2139 34.2546 28.0093 34.2546ZM28.0093 9.84239C21.9344 9.84239 17.0079 14.8563 17.0079 20.9969C17.0079 27.1375 21.9529 32.1514 28.0093 32.1514C34.0656 32.1514 39.0107 27.1375 39.0107 20.9969C39.0107 14.8563 34.0656 9.84239 28.0093 9.84239Z" fill="#13123D"/>
<path d="M33.4729 42.0101C32.4543 42.0101 31.4541 41.6721 30.4725 41.3341C29.5835 41.0336 28.7501 40.7332 28.0093 40.7332C27.2684 40.7332 26.435 41.0149 25.546 41.3341C24.1569 41.8036 22.7308 42.2918 21.3232 41.8411C19.8601 41.3529 18.934 40.0196 18.1191 38.8553C17.6005 38.1042 17.1005 37.3906 16.5634 36.9962C16.0077 36.5831 15.1743 36.3202 14.3038 36.0385C12.9518 35.6066 11.4331 35.1371 10.5441 33.879C9.65507 32.6396 9.67359 31.0998 9.69211 29.6162C9.69211 28.6773 9.71064 27.7947 9.48839 27.1187C9.28466 26.4802 8.78459 25.8042 8.24749 25.0718C7.39553 23.9076 6.41392 22.5931 6.41392 21.0156C6.41392 19.4382 7.37701 18.105 8.24749 16.9595C8.78459 16.2271 9.28466 15.5511 9.48839 14.9126C9.71064 14.2366 9.69211 13.354 9.69211 12.4151C9.69211 10.9315 9.65507 9.37292 10.5441 8.15232C11.4331 6.91293 12.9703 6.42469 14.3038 5.99278C15.1743 5.7111 16.0077 5.46698 16.5634 5.03507C17.119 4.62194 17.6005 3.92713 18.1191 3.17599C18.934 1.99294 19.8601 0.65966 21.3232 0.190195C22.7308 -0.27927 24.1569 0.208974 25.546 0.697217C26.435 0.997674 27.2684 1.29813 28.0093 1.29813C28.7501 1.29813 29.5835 1.01645 30.4725 0.697217C31.8616 0.227752 33.2877 -0.260491 34.6953 0.190195C36.1584 0.678438 37.0845 2.01172 37.8994 3.17599C38.418 3.92713 38.9181 4.64072 39.4552 5.03507C40.0108 5.4482 40.8442 5.7111 41.7147 5.99278C43.0667 6.42469 44.5854 6.89415 45.4744 8.15232C46.3634 9.3917 46.3449 10.9315 46.3264 12.4151C46.3264 13.354 46.3079 14.2366 46.5301 14.9126C46.7339 15.5511 47.2339 16.2271 47.771 16.9595C48.623 18.1237 49.6046 19.4195 49.6046 21.0156C49.6046 22.6118 48.6415 23.9263 47.771 25.0718C47.2339 25.7854 46.7339 26.4802 46.5301 27.1187C46.3079 27.7947 46.3264 28.6961 46.3264 29.6162C46.3264 31.0998 46.3634 32.6396 45.4744 33.879C44.5854 35.1184 43.0482 35.6066 41.7147 36.0385C40.8442 36.3202 40.0108 36.5643 39.4552 36.9962C38.8995 37.4094 38.418 38.1042 37.8994 38.8553C37.0845 40.0384 36.1584 41.3716 34.6953 41.8411C34.2878 41.9726 33.8989 42.0289 33.4914 42.0289L33.4729 42.0101ZM28.0093 38.63C29.0835 38.63 30.1206 38.9868 31.1393 39.3248C32.2505 39.7003 33.3062 40.0571 34.0471 39.813C34.862 39.5501 35.5102 38.6112 36.1955 37.6159C36.7882 36.7521 37.3993 35.8695 38.2328 35.2686C39.0662 34.6489 40.1034 34.3297 41.1035 34.0104C42.2333 33.6536 43.3075 33.3156 43.8076 32.6208C44.2891 31.9448 44.2706 30.8181 44.2706 29.6162C44.2706 28.5459 44.2521 27.4567 44.5669 26.4427C44.8818 25.4662 45.5115 24.6211 46.1227 23.7949C46.845 22.8184 47.5303 21.8795 47.5303 20.9969C47.5303 20.1143 46.845 19.1753 46.1227 18.1989C45.5115 17.3726 44.8818 16.5088 44.5669 15.5511C44.2521 14.537 44.2521 13.4291 44.2706 12.3775C44.2706 11.1757 44.2891 10.049 43.8076 9.37292C43.3075 8.6969 42.2333 8.35888 41.1035 7.98331C40.1034 7.66407 39.0662 7.34484 38.2328 6.72514C37.3993 6.10545 36.7882 5.22286 36.1955 4.37782C35.5102 3.38256 34.8435 2.44363 34.0471 2.18073C33.2877 1.9366 32.2505 2.2934 31.1393 2.66897C30.1392 3.00698 29.0835 3.36378 28.0093 3.36378C26.935 3.36378 25.8979 3.00698 24.8792 2.66897C23.768 2.2934 22.7308 1.9366 21.9715 2.18073C21.1565 2.44363 20.5083 3.38256 19.823 4.37782C19.2304 5.24164 18.6192 6.12423 17.7857 6.72514C16.9523 7.34484 15.9151 7.66407 14.915 7.98331C13.7852 8.3401 12.711 8.67812 12.211 9.37292C11.7294 10.049 11.7479 11.1757 11.7479 12.3775C11.7479 13.4479 11.7665 14.537 11.4516 15.5511C11.1367 16.5276 10.507 17.3726 9.89584 18.1989C9.17353 19.1753 8.48826 20.1143 8.48826 20.9969C8.48826 21.8795 9.17353 22.8184 9.89584 23.7949C10.507 24.6211 11.1367 25.485 11.4516 26.4427C11.7665 27.4567 11.7665 28.5646 11.7479 29.6162C11.7479 30.8181 11.7294 31.9448 12.211 32.6208C12.711 33.2968 13.7852 33.6349 14.915 34.0104C15.9151 34.3297 16.9523 34.6489 17.7857 35.2686C18.6192 35.8883 19.2304 36.7709 19.823 37.6159C20.5083 38.6112 21.1565 39.5501 21.9715 39.813C22.7308 40.0571 23.7865 39.7003 24.8792 39.3248C25.8794 38.9868 26.935 38.63 28.0093 38.63Z" fill="#13123D"/>
<path d="M14.2297 59.9812C14.2297 59.9812 14.1186 59.9812 14.063 59.9812C13.6556 59.9061 13.3037 59.5869 13.2111 59.1737L11.0071 49.2586L1.30216 51.8125C0.894701 51.9252 0.468721 51.775 0.209428 51.4182C-0.0498639 51.0802 -0.0683848 50.6107 0.153866 50.2351L8.84016 35.7756C9.13649 35.2874 9.7662 35.1184 10.2663 35.4188C10.7478 35.7193 10.9145 36.3765 10.6182 36.8648L3.26537 49.1084L11.5257 46.9301C11.8035 46.855 12.0813 46.8925 12.3221 47.0428C12.5629 47.193 12.7295 47.4371 12.7851 47.7188L14.6557 56.1504L22.0085 43.9067C22.3048 43.4185 22.9531 43.2495 23.4346 43.55C23.9161 43.8504 24.0828 44.5077 23.7865 44.9959L15.1002 59.4554C14.915 59.7747 14.5631 59.9624 14.2112 59.9624L14.2297 59.9812Z" fill="#13123D"/>
<path d="M41.7888 59.9812C41.4369 59.9812 41.085 59.7934 40.8998 59.4742L32.2135 45.0147C31.9172 44.5264 32.0653 43.8692 32.5654 43.5687C33.0469 43.2683 33.6952 43.4185 33.9915 43.9255L41.3443 56.1692L43.2149 47.7376C43.2705 47.4559 43.4557 47.2118 43.6779 47.0616C43.9187 46.9113 44.215 46.8738 44.4743 46.9489L52.7346 49.1272L45.3818 36.8836C45.0855 36.3953 45.2337 35.7381 45.7337 35.4376C46.2338 35.1371 46.8635 35.2874 47.1598 35.7944L55.8461 50.2539C56.0684 50.6295 56.0499 51.0802 55.7906 51.437C55.5313 51.775 55.1053 51.944 54.6978 51.8313L45.0114 49.2774L42.8074 59.1925C42.7148 59.6057 42.3815 59.9249 41.9555 60C41.8999 60 41.8444 60 41.7888 60V59.9812Z" fill="#13123D"/>
</svg>
