<svg width="32" height="36" viewBox="0 0 32 36" fill="none" xmlns="http://www.w3.org/2000/svg">
<path d="M31.0293 10.614L21.4561 0.984802C20.8368 0.361936 20.0167 0.00841713 19.1464 0.00841713H3.38075C3.01255 0.00841713 2.66109 0.159925 2.41004 0.412439L0.401674 2.44938C0.150628 2.70189 0 3.05541 0 3.42577V32.5995C0 32.9698 0.150628 33.3065 0.401674 33.5759L2.41004 35.596C2.66109 35.8485 3.01255 36 3.38075 36H28.6192C28.9874 36 29.3222 35.8485 29.59 35.596L31.5983 33.5759C31.8494 33.3234 32 32.9698 32 32.5995V12.9371C32 12.0617 31.6485 11.2368 31.046 10.614H31.0293Z" fill="#13123D"/>
<path d="M31.7657 7.58382C32.0669 7.2808 32.0669 6.80945 31.7657 6.50643L25.523 0.227262C25.2218 -0.075754 24.7531 -0.075754 24.4519 0.227262L23.6485 1.03531L30.9623 8.39186L31.7657 7.58382Z" fill="#13123D"/>
</svg>
