<svg xmlns="http://www.w3.org/2000/svg" width="22" height="22" viewBox="0 0 48 48">
  <path fill="#fbc02d" d="M43.611 20.083H42V20H24v8h11.303C33.65 32.274 29.255 35 24 35c-6.627 0-12-5.373-12-12s5.373-12 12-12c3.059 0 5.842 1.153 7.961 3.039l5.657-5.657C33.963 5.144 29.26 3 24 3 12.954 3 4 11.954 4 23s8.954 20 20 20c11.045 0 19.96-8.954 19.96-20 0-1.34-.138-2.646-.349-3.917z"></path>
  <path fill="#e53935" d="M6.306 14.691l6.571 4.819C14.292 16.2 18.771 13 24 13c3.059 0 5.842 1.153 7.961 3.039l5.657-5.657C33.963 5.144 29.26 3 24 3c-7.342 0-13.599 3.836-17.027 9.691l-.667 2z"></path>
  <path fill="#4caf50" d="M24 43c5.187 0 9.858-1.977 13.392-5.184l-6.196-5.238C29.888 34.804 27.064 36 24 36c-5.231 0-9.624-2.725-11.293-6.826l-6.502 5.015C9.615 39.307 16.313 43 24 43z"></path>
  <path fill="#1565c0" d="M43.611 20.083H42V20H24v8h11.303C34.639 33.225 29.888 36 24 36c-5.231 0-9.624-2.725-11.293-6.826l-6.502 5.015C9.615 39.307 16.313 43 24 43c11.045 0 19.96-8.954 19.96-20 0-1.34-.138-2.646-.349-3.917z"></path>
</svg>
