<svg width="44" height="44" viewBox="0 0 44 44" fill="none" xmlns="http://www.w3.org/2000/svg">
<path d="M40.2723 0H3.7277C1.66894 0 0 1.66895 0 3.72771V40.2723C0 42.3311 1.66894 44 3.7277 44H40.2723C42.331 44 44 42.3311 44 40.2723V3.72771C44 1.66895 42.331 0 40.2723 0Z" fill="#E7E7E7"/>
<path d="M33.2727 16.4898L26.094 9.31114C25.6382 8.85535 25.0033 8.5949 24.3685 8.5949H12.5342C12.2575 8.5949 11.997 8.70885 11.818 8.88791L10.3041 10.4018C10.1088 10.5971 10.0111 10.8576 10.0111 11.118V32.8657C10.0111 33.1424 10.125 33.4029 10.3041 33.5819L11.818 35.0958C12.0133 35.2912 12.2738 35.3888 12.5342 35.3888H31.4658C31.7425 35.3888 32.0029 35.2749 32.182 35.0958L33.6959 33.5819C33.8912 33.3866 33.9889 33.1262 33.9889 32.8657V18.2153C33.9889 17.5642 33.7285 16.9456 33.2727 16.4898Z" fill="#13123D"/>
<path d="M33.8261 14.2434C34.054 14.0155 34.054 13.6574 33.8261 13.4458L29.138 8.75768C28.9101 8.52978 28.552 8.52978 28.3403 8.75768L27.7381 9.35997L33.2238 14.8457L33.8261 14.2434Z" fill="#13123D"/>
</svg>
