<svg width="44" height="44" viewBox="0 0 44 44" fill="none" xmlns="http://www.w3.org/2000/svg">
<path d="M40.2723 0H3.72771C1.66895 0 0 1.66895 0 3.72771V40.2723C0 42.3311 1.66895 44 3.72771 44H40.2723C42.331 44 44 42.3311 44 40.2723V3.72771C44 1.66895 42.331 0 40.2723 0Z" fill="#E7E7E7"/>
<path d="M27.1683 6.77174V5.8276H16.8317V38.1724H27.1683V37.2445H17.9549V33.5819H23.7662V32.8494H17.9549V29.1054H23.7662V28.3729H17.9549V24.6127H23.7662V23.8801H17.9549V20.1362H23.7662V19.4036H17.9549V15.6434H23.7662V14.9108H17.9549V11.1506H23.7662V10.4181H17.9549V6.77174H27.1683Z" fill="#13123D"/>
</svg>
