<svg width="44" height="44" viewBox="0 0 44 44" fill="none" xmlns="http://www.w3.org/2000/svg">
<path d="M40.2723 0H3.7277C1.66894 0 0 1.66895 0 3.72771V40.2723C0 42.331 1.66894 44 3.7277 44H40.2723C42.331 44 44 42.331 44 40.2723V3.72771C44 1.66895 42.331 0 40.2723 0Z" fill="#E7E7E7"/>
<path d="M37.3422 16.2294H32.9796V18.7525H31.6448V16.2294H29.3333L27.4613 12.3063H21.5686V11.0692H27.0055V9.08324H14.1458V11.0692H19.5827V12.3063H13.9341L11.9645 14.9108L8.66 15.8875V20.7222H7.3089V15.269H5.33925V28.145H7.3089V22.6918H8.66V27.7055L14.4225 29.1054L16.7828 32.768H29.7566L31.6448 32.0355V28.8938H32.9634L32.9796 31.303H36.3167L38.677 28.1613V19.8431L37.3422 16.2294Z" fill="#13123D"/>
</svg>
