<svg width="44" height="44" viewBox="0 0 44 44" fill="none" xmlns="http://www.w3.org/2000/svg">
<path d="M40.2723 0H3.72772C1.66897 0 0 1.66895 0 3.72771V40.2723C0 42.331 1.66897 44 3.72772 44H40.2723C42.3311 44 44 42.331 44 40.2723V3.72771C44 1.66895 42.3311 0 40.2723 0Z" fill="#E7E7E7"/>
<path d="M28.8776 27.559C28.9915 26.0614 29.9519 24.808 31.2867 24.2545V11.7692C31.2867 9.96227 29.8217 8.49723 28.0148 8.49723H15.9852C14.1783 8.49723 12.7133 9.96227 12.7133 11.7692V24.2545C14.0481 24.7917 15.0085 26.0614 15.1225 27.559H28.8776Z" fill="#13123D"/>
<path d="M32.7518 25.1661C31.2542 25.1661 30.0496 26.3707 30.0496 27.8683V28.7473H13.9504V27.8683C13.9504 26.3707 12.7458 25.1661 11.2482 25.1661C9.75065 25.1661 8.54606 26.3707 8.54606 27.8683V35.4865H35.4702V27.8683C35.4702 26.3707 34.2656 25.1661 32.768 25.1661H32.7518Z" fill="#13123D"/>
</svg>
