<svg width="44" height="44" viewBox="0 0 44 44" fill="none" xmlns="http://www.w3.org/2000/svg">
<path d="M40.2723 0H3.72771C1.66895 0 0 1.66895 0 3.72771V40.2723C0 42.331 1.66895 44 3.72771 44H40.2723C42.331 44 44 42.331 44 40.2723V3.72771C44 1.66895 42.331 0 40.2723 0Z" fill="#E7E7E7"/>
<path d="M32.7355 32.768C33.5006 32.768 34.0703 32.0844 33.9401 31.3356L31.4658 16.7666C31.3193 16.0178 30.6519 15.4643 29.8705 15.4643H25.9149C26.5172 14.5364 26.8102 13.3807 26.6149 12.1598C26.2893 10.1088 24.5964 8.49722 22.529 8.26933C19.7129 7.96004 17.32 10.1576 17.32 12.9086C17.32 13.8528 17.5967 14.7155 18.0688 15.448H14.1132C13.3481 15.448 12.6807 15.9852 12.5179 16.7503L10.0437 31.3193C9.91343 32.0681 10.4994 32.7518 11.2482 32.7518H32.7192L32.7355 32.768ZM22.0081 10.825C23.1639 10.825 24.108 11.7691 24.108 12.9249C24.108 14.0807 23.1639 15.0248 22.0081 15.0248C20.8524 15.0248 19.9082 14.0807 19.9082 12.9249C19.9082 11.7691 20.8524 10.825 22.0081 10.825Z" fill="#13123D"/>
</svg>
