<svg width="44" height="44" viewBox="0 0 44 44" fill="none" xmlns="http://www.w3.org/2000/svg">
<path d="M40.2723 0H3.72771C1.66895 0 0 1.66895 0 3.72771V40.2723C0 42.331 1.66895 44 3.72771 44H40.2723C42.331 44 44 42.331 44 40.2723V3.72771C44 1.66895 42.331 0 40.2723 0Z" fill="#E7E7E7"/>
<path d="M6.25083 18.7037H5.27414V25.2963H38.7259V18.7037H37.7492V24.1243H33.9726V20.7059H33.2238V24.1243H29.3333V20.7059H28.5845V24.1243H24.694V20.7059H23.9452V24.1243H20.0548V20.7059H19.306V24.1243H15.4155V20.7059H14.6667V24.1243H10.7762V20.7059H10.0274V24.1243H6.25083V18.7037Z" fill="#13123D"/>
</svg>
