<svg width="54" height="54" viewBox="0 0 54 54" fill="none" xmlns="http://www.w3.org/2000/svg">
<path d="M31.52 53.3599C31.43 53.3699 31.34 53.3699 31.25 53.3799C31.25 47.3899 31.25 41.3999 31.24 35.4099C31.24 35.0199 31.37 34.9499 31.73 34.9499C33.44 34.9699 35.15 34.9399 36.87 34.9699C37.3 34.9799 37.43 34.8299 37.49 34.4199C37.8 32.2399 38.13 30.0499 38.49 27.8799C38.56 27.4399 38.5 27.3099 38.02 27.3099C35.92 27.3399 33.8199 27.3199 31.7099 27.3299C31.4599 27.3299 31.23 27.3599 31.24 26.9599C31.26 25.2899 31.21 23.6099 31.27 21.9299C31.33 20.4999 31.94 19.3399 33.3 18.6999C33.94 18.3899 34.61 18.2799 35.31 18.2699C36.35 18.2599 37.39 18.2499 38.43 18.2599C38.79 18.2699 38.88 18.1399 38.88 17.7999C38.87 15.9299 38.87 14.0599 38.88 12.1899C38.88 11.8499 38.7799 11.7299 38.4499 11.6899C36.8199 11.4499 35.19 11.2899 33.54 11.2499C31.56 11.1899 29.6199 11.4399 27.8299 12.3699C24.8099 13.9499 23.4399 16.5999 23.0899 19.8599C22.8499 22.1699 23.03 24.4899 23 26.7999C23 27.2099 22.91 27.3399 22.48 27.3299C20.57 27.3099 18.66 27.3299 16.76 27.3199C16.38 27.3099 16.28 27.4299 16.28 27.7899C16.3 30.0199 16.3 32.2499 16.28 34.4699C16.28 34.8799 16.41 34.9699 16.79 34.9699C18.7 34.9499 20.61 34.9699 22.52 34.9499C22.88 34.9499 23 35.0299 23 35.4099C22.99 41.3999 22.99 47.3899 22.99 53.3799C19.05 52.7999 15.4099 51.4199 12.2099 49.0799C2.99994 42.3399 -0.739976 33.2499 1.30002 22.0199C3.15002 11.7899 11.36 3.70991 21.67 1.48991C36.46 -1.68009 51.0399 8.45993 53.2199 23.4199C55.2999 37.7199 45.72 50.9399 31.52 53.3599Z" fill="#13123D"/>
</svg>
