<svg width="144" height="28" viewBox="0 0 144 28" fill="none" xmlns="http://www.w3.org/2000/svg">
<path d="M48.08 6.52002H45.78C40.87 6.52002 38.15 9.01002 38.15 14.04C38.15 19.07 40.85 21.49 45.78 21.49H48.08C53.01 21.49 55.71 19.05 55.71 14.04C55.71 9.03002 52.98 6.52002 48.08 6.52002ZM48.08 18.88H45.78C42.5 18.88 41.1 17.46 41.1 14.04C41.1 10.62 42.53 9.14002 45.78 9.14002H48.08C51.33 9.14002 52.73 10.6 52.73 14.02C52.73 17.44 51.33 18.88 48.08 18.88Z" fill="#939393"/>
<path d="M64.47 9.79004H59.01C57.68 9.79004 57.16 10.23 57.16 11.61V21.51H59.81V12.39C59.81 12.17 59.91 12.06 60.14 12.06H64.47C67.25 12.06 68.45 13.08 68.45 14.92V21.51H71.13V14.92C71.13 11.68 68.95 9.79004 64.47 9.79004Z" fill="#939393"/>
<path d="M87.8901 11.01C87.8901 8.61003 86.26 6.53003 82.46 6.53003H73.3V21.51H76.28V16.1C76.28 15.83 76.43 15.72 76.71 15.72H81.11L84.96 21.51H88.24L84.31 15.52C86.89 14.88 87.8901 12.88 87.8901 11.02V11.01ZM76.28 13.21V9.15003H82.56C84.19 9.15003 84.91 10.06 84.91 11.12C84.91 12.18 84.24 13.21 82.56 13.21H76.28Z" fill="#939393"/>
<path d="M97.6801 16.75C100.93 16.75 102.16 15.53 102.16 13.38C102.16 11.12 100.83 9.79004 97.7101 9.79004H93.4301C90.1301 9.79004 88.8301 11.43 88.8301 13.65V17.64C88.8301 19.86 90.1301 21.5 93.4301 21.5H101.51V19.21H93.4301C91.9801 19.21 91.4001 18.52 91.4001 17.59V16.75H97.6801ZM91.4001 13.66C91.4001 12.75 91.9801 12.04 93.4301 12.04H97.6901C98.9901 12.04 99.5701 12.62 99.5701 13.5C99.5701 14.38 99.0501 14.9 97.6201 14.9H91.4101V13.66H91.4001Z" fill="#939393"/>
<path d="M110.84 9.79004H105.38C104.05 9.79004 103.53 10.23 103.53 11.61V21.51H106.18V12.39C106.18 12.17 106.28 12.06 106.51 12.06H110.84C113.62 12.06 114.82 13.08 114.82 14.92V21.51H117.5V14.92C117.5 11.68 115.32 9.79004 110.84 9.79004Z" fill="#939393"/>
<path d="M123.78 19.35C122.53 19.35 122 18.91 122 17.6V12.05H125.65V9.79002H122V7.02002H119.32V9.79002H117.52V12.05H119.32V17.46C119.32 20.52 120.5 21.5 123.22 21.5H123.48L125.56 19.35H123.76H123.78Z" fill="#939393"/>
<path d="M136.37 13.89L143.6 6.52002H139.94L134.51 12.05L129.33 6.52002H125.73L132.59 13.69L125.03 21.5H128.68L134.44 15.55L140.04 21.5H143.65L136.37 13.89Z" fill="#939393"/>
<path d="M14.06 22.07C9.62004 22.07 6.02005 18.47 6.02005 14.04C6.02005 9.61002 9.62004 6.01003 14.06 6.01003V0.52002H11.73V1.97002C10.07 2.29002 8.52004 2.95002 7.17004 3.86002C6.83004 3.52002 6.49005 3.18002 6.16005 2.86002C5.06005 3.96002 3.98005 5.05002 2.86005 6.17002C3.19005 6.50002 3.54005 6.83002 3.88005 7.17002C2.97005 8.52002 2.31005 10.06 2.00005 11.72C1.51005 11.72 1.03005 11.72 0.550049 11.72V16.37C1.04005 16.37 1.52005 16.37 2.00005 16.37C2.32005 18.03 2.97005 19.57 3.88005 20.93C3.54005 21.27 3.20004 21.6 2.87004 21.92C3.99004 23.04 5.08005 24.13 6.16005 25.22C6.49005 24.9 6.83004 24.56 7.17004 24.22C8.52004 25.14 10.0701 25.79 11.7401 26.12V27.57H16.39V26.12C18.05 25.8 19.6101 25.14 20.9601 24.23C21.2901 24.56 21.63 24.9 21.94 25.21C23.05 24.1 24.14 23.02 25.25 21.91C24.93 21.6 24.6 21.27 24.26 20.94C25.18 19.59 25.83 18.04 26.15 16.38H27.59V14.06H22.11C22.11 18.5 18.51 22.09 14.08 22.09L14.06 22.07Z" fill="#939393"/>
<path d="M21.01 7.09013C20.23 6.31013 18.96 6.31013 18.17 7.09013L15.93 9.33013C15.35 9.10013 14.72 8.97013 14.06 8.97013C11.27 8.97013 9 11.2301 9 14.0301C9 16.8301 11.27 19.0901 14.06 19.0901C16.85 19.0901 19.12 16.8301 19.12 14.0301C19.12 13.3701 18.99 12.7401 18.76 12.1701L21 9.92013C21.78 9.14013 21.78 7.87013 21 7.08013L21.01 7.09013ZM15.95 14.9901L15.48 15.4601C15.09 15.8501 14.58 16.0501 14.06 16.0501C13.54 16.0501 13.03 15.8501 12.64 15.4601C11.85 14.6701 11.85 13.4101 12.64 12.6201L13.09 12.1701C13.39 12.0101 13.72 11.9201 14.08 11.9201C15.24 11.9201 16.18 12.8601 16.18 14.0201C16.18 14.3701 16.09 14.7001 15.94 14.9901H15.95Z" fill="#939393"/>
<path d="M27.86 2.60009C27.86 1.49009 26.96 0.590088 25.85 0.590088H18.15C17.08 0.590088 16.21 1.42009 16.15 2.47009C16.24 2.46009 16.33 2.45009 16.42 2.45009H23.73C23.89 2.45009 24.04 2.47009 24.18 2.49009C24.27 2.50009 24.35 2.51009 24.44 2.53009C24.36 2.52009 24.27 2.50009 24.18 2.49009C24.03 2.47009 23.88 2.46009 23.73 2.45009H16.42C16.33 2.45009 16.24 2.45009 16.15 2.47009C16.15 2.51009 16.15 2.55009 16.15 2.59009C16.15 3.70009 17.05 4.60009 18.16 4.60009H23.86V10.2501C23.87 10.8601 24.16 11.4001 24.61 11.7601C24.94 12.0301 25.37 12.2001 25.83 12.2101C26.4 12.2201 26.92 11.9901 27.29 11.6201C27.63 11.2701 27.85 10.8001 27.87 10.2801V5.47009V2.61009L27.86 2.60009ZM25.4 2.79009C25.26 2.74009 25.12 2.69009 24.97 2.65009C24.97 2.65009 24.97 2.65009 24.96 2.65009C24.96 2.65009 24.96 2.65009 24.97 2.65009C25.12 2.69009 25.27 2.74009 25.4 2.79009Z" fill="#939393"/>
</svg>
