<svg width="54" height="54" viewBox="0 0 54 54" fill="none" xmlns="http://www.w3.org/2000/svg">
<path d="M46.0201 21.04C46.0001 19.8 45.9701 18.56 45.8801 17.32C45.7901 16.13 45.5801 14.96 45.1501 13.83C44.4001 11.91 43.0901 10.5 41.2301 9.62998C40.0901 9.08998 38.8701 8.82997 37.6301 8.71997C36.1001 8.57997 34.5702 8.53997 33.0402 8.52997C31.0702 8.50997 29.1001 8.53998 27.1401 8.50998H26.0201C25.0501 8.48998 24.0801 8.48997 23.1001 8.49997C21.2601 8.53997 19.4201 8.52997 17.5801 8.64997C16.2101 8.72997 14.8801 8.93998 13.6001 9.43998C12.0201 10.07 10.7801 11.12 9.89014 12.56C9.24014 13.61 8.90007 14.77 8.70007 15.98C8.46007 17.38 8.44016 18.8 8.41016 20.22C8.36016 22.26 8.3601 24.3 8.3501 26.34C8.3501 27.5 8.36012 28.66 8.37012 29.81C8.40012 32.19 8.36013 34.56 8.51013 36.92C8.59013 38.05 8.73007 39.15 9.07007 40.22C9.89007 42.78 11.5601 44.5 14.1001 45.36C15.3901 45.8 16.7301 45.94 18.0701 46.01C19.3201 46.07 20.5602 46.12 21.8002 46.12C25.6902 46.14 29.5901 46.18 33.4801 46.1C34.6701 46.07 35.8602 46.04 37.0502 45.97C38.1202 45.9 39.1701 45.73 40.1901 45.41C41.7301 44.94 43.0001 44.07 44.0201 42.82C44.7201 41.95 45.1501 40.95 45.4501 39.88C45.7701 38.77 45.8701 37.63 45.9401 36.48C46.0201 35.09 46.0502 33.7 46.0502 32.32C46.0702 28.56 46.1101 24.8 46.0201 21.04ZM27.2401 39.06C20.9701 39.12 15.4601 34.08 15.4501 27.34C15.4401 20.78 20.7001 15.63 27.1201 15.58C33.6501 15.54 38.9501 20.78 38.9701 27.25C39.0001 33.89 33.5901 39.09 27.2401 39.06ZM39.4501 17.8C37.9301 17.8 36.7401 16.59 36.7501 15.06C36.7501 13.56 37.9801 12.36 39.5001 12.37C41.0001 12.38 42.2001 13.6 42.2001 15.1C42.1901 16.61 40.9801 17.8 39.4501 17.8ZM46.0201 21.04C46.0001 19.8 45.9701 18.56 45.8801 17.32C45.7901 16.13 45.5801 14.96 45.1501 13.83C44.4001 11.91 43.0901 10.5 41.2301 9.62998C40.0901 9.08998 38.8701 8.82997 37.6301 8.71997C36.1001 8.57997 34.5702 8.53997 33.0402 8.52997C31.0702 8.50997 29.1001 8.53998 27.1401 8.50998H26.0201C25.0501 8.48998 24.0801 8.48997 23.1001 8.49997C21.2601 8.53997 19.4201 8.52997 17.5801 8.64997C16.2101 8.72997 14.8801 8.93998 13.6001 9.43998C12.0201 10.07 10.7801 11.12 9.89014 12.56C9.24014 13.61 8.90007 14.77 8.70007 15.98C8.46007 17.38 8.44016 18.8 8.41016 20.22C8.36016 22.26 8.3601 24.3 8.3501 26.34C8.3501 27.5 8.36012 28.66 8.37012 29.81C8.40012 32.19 8.36013 34.56 8.51013 36.92C8.59013 38.05 8.73007 39.15 9.07007 40.22C9.89007 42.78 11.5601 44.5 14.1001 45.36C15.3901 45.8 16.7301 45.94 18.0701 46.01C19.3201 46.07 20.5602 46.12 21.8002 46.12C25.6902 46.14 29.5901 46.18 33.4801 46.1C34.6701 46.07 35.8602 46.04 37.0502 45.97C38.1202 45.9 39.1701 45.73 40.1901 45.41C41.7301 44.94 43.0001 44.07 44.0201 42.82C44.7201 41.95 45.1501 40.95 45.4501 39.88C45.7701 38.77 45.8701 37.63 45.9401 36.48C46.0201 35.09 46.0502 33.7 46.0502 32.32C46.0702 28.56 46.1101 24.8 46.0201 21.04ZM27.2401 39.06C20.9701 39.12 15.4601 34.08 15.4501 27.34C15.4401 20.78 20.7001 15.63 27.1201 15.58C33.6501 15.54 38.9501 20.78 38.9701 27.25C39.0001 33.89 33.5901 39.09 27.2401 39.06ZM39.4501 17.8C37.9301 17.8 36.7401 16.59 36.7501 15.06C36.7501 13.56 37.9801 12.36 39.5001 12.37C41.0001 12.38 42.2001 13.6 42.2001 15.1C42.1901 16.61 40.9801 17.8 39.4501 17.8ZM46.0201 21.04C46.0001 19.8 45.9701 18.56 45.8801 17.32C45.7901 16.13 45.5801 14.96 45.1501 13.83C44.4001 11.91 43.0901 10.5 41.2301 9.62998C40.0901 9.08998 38.8701 8.82997 37.6301 8.71997C36.1001 8.57997 34.5702 8.53997 33.0402 8.52997C31.0702 8.50997 29.1001 8.53998 27.1401 8.50998H26.0201C25.0501 8.48998 24.0801 8.48997 23.1001 8.49997C21.2601 8.53997 19.4201 8.52997 17.5801 8.64997C16.2101 8.72997 14.8801 8.93998 13.6001 9.43998C12.0201 10.07 10.7801 11.12 9.89014 12.56C9.24014 13.61 8.90007 14.77 8.70007 15.98C8.46007 17.38 8.44016 18.8 8.41016 20.22C8.36016 22.26 8.3601 24.3 8.3501 26.34C8.3501 27.5 8.36012 28.66 8.37012 29.81C8.40012 32.19 8.36013 34.56 8.51013 36.92C8.59013 38.05 8.73007 39.15 9.07007 40.22C9.89007 42.78 11.5601 44.5 14.1001 45.36C15.3901 45.8 16.7301 45.94 18.0701 46.01C19.3201 46.07 20.5602 46.12 21.8002 46.12C25.6902 46.14 29.5901 46.18 33.4801 46.1C34.6701 46.07 35.8602 46.04 37.0502 45.97C38.1202 45.9 39.1701 45.73 40.1901 45.41C41.7301 44.94 43.0001 44.07 44.0201 42.82C44.7201 41.95 45.1501 40.95 45.4501 39.88C45.7701 38.77 45.8701 37.63 45.9401 36.48C46.0201 35.09 46.0502 33.7 46.0502 32.32C46.0702 28.56 46.1101 24.8 46.0201 21.04ZM27.2401 39.06C20.9701 39.12 15.4601 34.08 15.4501 27.34C15.4401 20.78 20.7001 15.63 27.1201 15.58C33.6501 15.54 38.9501 20.78 38.9701 27.25C39.0001 33.89 33.5901 39.09 27.2401 39.06ZM39.4501 17.8C37.9301 17.8 36.7401 16.59 36.7501 15.06C36.7501 13.56 37.9801 12.36 39.5001 12.37C41.0001 12.38 42.2001 13.6 42.2001 15.1C42.1901 16.61 40.9801 17.8 39.4501 17.8Z" fill="#13123D"/>
<path d="M53.61 20.8699C53.58 19.5599 53.55 18.1999 53.44 16.7699C53.29 14.6899 52.89 12.8299 52.22 11.0899C50.77 7.34991 48.08 4.46992 44.46 2.75992C42.61 1.89992 40.6001 1.36992 38.3101 1.16992C36.3901 0.999922 34.53 0.959911 33.11 0.939911H29.34C28.49 0.939911 27.85 0.939901 27.26 0.929901H27.2H26.44C26.33 0.929901 26.23 0.929922 26.13 0.919922C25.42 0.909922 24.86 0.909912 24.34 0.909912C23.85 0.909912 23.4 0.909922 22.96 0.919922C22.51 0.929922 22.05 0.939911 21.6 0.939911C20.15 0.959911 18.66 0.979895 17.1 1.0799C14.69 1.2299 12.69 1.64992 10.82 2.38992C7.73996 3.59992 5.18995 5.73989 3.43995 8.5799C2.34995 10.3499 1.61998 12.3499 1.21998 14.7099C0.909984 16.5599 0.869969 18.2599 0.829969 19.7499V20.0299C0.779969 21.9299 0.770033 23.8299 0.770033 25.6699V26.3099C0.760033 27.3699 0.770052 28.4799 0.790052 29.9099C0.800052 30.5299 0.800062 31.1499 0.800062 31.7599C0.810062 33.5799 0.819965 35.4499 0.949965 37.4099C1.06996 39.3699 1.35999 40.9999 1.84999 42.5299C3.38999 47.3599 6.88005 50.9199 11.66 52.5399C13.95 53.3199 16.1 53.5099 17.72 53.5799C19.2 53.6499 20.46 53.6999 21.77 53.7099C22.52 53.7099 23.26 53.7099 24 53.7099C25.41 53.7099 26.81 53.7199 28.21 53.7199C30.3 53.7199 32.02 53.7099 33.64 53.6699C34.94 53.6399 36.21 53.6099 37.5401 53.5299C39.2901 53.4099 40.9 53.1299 42.44 52.6499C45.43 51.7199 47.9501 50.0099 49.9201 47.5699C51.2001 45.9799 52.13 44.1299 52.75 41.9399C53.27 40.1199 53.42 38.4499 53.51 36.9099C53.59 35.5599 53.63 34.1099 53.64 32.3399V30.2699C53.66 27.1999 53.68 24.0299 53.61 20.8599V20.8699ZM49.24 30.2599C49.23 30.9499 49.23 31.6399 49.23 32.3299C49.22 34.0199 49.18 35.3999 49.11 36.6599C49.03 37.9499 48.91 39.3399 48.51 40.7499C48.05 42.3599 47.39 43.6899 46.49 44.8099C45.08 46.5599 43.28 47.7799 41.13 48.4499C39.93 48.8199 38.66 49.0499 37.25 49.1399C36.01 49.2199 34.7901 49.2499 33.5501 49.2699C31.9601 49.3099 30.26 49.3199 28.21 49.3199C26.82 49.3199 25.42 49.3199 24.03 49.3099C23.28 49.3099 22.5401 49.2999 21.7901 49.2999C20.5601 49.2899 19.3601 49.2499 17.9301 49.1799C16.6001 49.1199 14.84 48.9699 13.08 48.3699C9.59997 47.1899 7.17006 44.6999 6.05006 41.1899C5.67006 40.0099 5.44999 38.7199 5.34999 37.1299C5.22999 35.2999 5.21997 33.4899 5.20997 31.7399C5.20997 31.1099 5.19996 30.4799 5.19996 29.8599C5.17996 28.4499 5.17006 27.3599 5.17006 26.3299V25.6899C5.18006 23.8699 5.18999 21.9999 5.22999 20.1399V19.8599C5.27999 18.4399 5.30996 16.9799 5.56996 15.4499C5.86996 13.6599 6.39995 12.1699 7.18995 10.8899C8.44995 8.84992 10.22 7.3699 12.44 6.4899C13.87 5.9199 15.44 5.59992 17.38 5.47992C18.83 5.38992 20.27 5.36991 21.65 5.34991C22.12 5.34991 22.5801 5.3399 23.0401 5.3299C23.4501 5.31989 23.88 5.31992 24.34 5.31992C24.84 5.31992 25.38 5.31989 26.07 5.3299C26.19 5.3299 26.31 5.3299 26.44 5.3299H27.19C27.8 5.3299 28.47 5.3399 29.34 5.3399H33.07C34.48 5.3599 36.1601 5.3899 37.9201 5.5499C39.6801 5.7099 41.21 6.0999 42.58 6.7399C45.2 7.9799 47.06 9.9699 48.11 12.6799C48.62 13.9999 48.9301 15.4399 49.0501 17.0799C49.1401 18.3999 49.17 19.6999 49.2 20.9599C49.27 24.0699 49.25 27.2099 49.24 30.2499V30.2599Z" fill="#13123D"/>
<path d="M46.0201 21.04C46.0001 19.8 45.9701 18.56 45.8801 17.32C45.7901 16.13 45.5801 14.96 45.1501 13.83C44.4001 11.91 43.0901 10.5 41.2301 9.62998C40.0901 9.08998 38.8701 8.82997 37.6301 8.71997C36.1001 8.57997 34.5702 8.53997 33.0402 8.52997C31.0702 8.50997 29.1001 8.53998 27.1401 8.50998H26.0201C25.0501 8.48998 24.0801 8.48997 23.1001 8.49997C21.2601 8.53997 19.4201 8.52997 17.5801 8.64997C16.2101 8.72997 14.8801 8.93998 13.6001 9.43998C12.0201 10.07 10.7801 11.12 9.89014 12.56C9.24014 13.61 8.90007 14.77 8.70007 15.98C8.46007 17.38 8.44016 18.8 8.41016 20.22C8.36016 22.26 8.3601 24.3 8.3501 26.34C8.3501 27.5 8.36012 28.66 8.37012 29.81C8.40012 32.19 8.36013 34.56 8.51013 36.92C8.59013 38.05 8.73007 39.15 9.07007 40.22C9.89007 42.78 11.5601 44.5 14.1001 45.36C15.3901 45.8 16.7301 45.94 18.0701 46.01C19.3201 46.07 20.5602 46.12 21.8002 46.12C25.6902 46.14 29.5901 46.18 33.4801 46.1C34.6701 46.07 35.8602 46.04 37.0502 45.97C38.1202 45.9 39.1701 45.73 40.1901 45.41C41.7301 44.94 43.0001 44.07 44.0201 42.82C44.7201 41.95 45.1501 40.95 45.4501 39.88C45.7701 38.77 45.8701 37.63 45.9401 36.48C46.0201 35.09 46.0502 33.7 46.0502 32.32C46.0702 28.56 46.1101 24.8 46.0201 21.04ZM27.2401 39.06C20.9701 39.12 15.4601 34.08 15.4501 27.34C15.4401 20.78 20.7001 15.63 27.1201 15.58C33.6501 15.54 38.9501 20.78 38.9701 27.25C39.0001 33.89 33.5901 39.09 27.2401 39.06ZM39.4501 17.8C37.9301 17.8 36.7401 16.59 36.7501 15.06C36.7501 13.56 37.9801 12.36 39.5001 12.37C41.0001 12.38 42.2001 13.6 42.2001 15.1C42.1901 16.61 40.9801 17.8 39.4501 17.8Z" fill="#13123D"/>
<path d="M34.89 27.3199C34.9 31.4599 31.5899 34.9999 27.1899 34.9999C22.8999 34.9899 19.53 31.5499 19.53 27.3199C19.54 22.9899 23.06 19.6399 27.24 19.6499C31.46 19.6699 34.89 23.1099 34.89 27.3199Z" fill="#13123D"/>
</svg>
