<?xml version="1.0" encoding="UTF-8"?>
<svg id="Capa_2" data-name="Capa 2" xmlns="http://www.w3.org/2000/svg" viewBox="0 0 51.28 51.28">
  <defs>
    <style>
      .cls-1 {
        fill: #ea6300;
        stroke-width: 0px;
      }
    </style>
  </defs>
  <g id="Capa_1-2" data-name="Capa 1">
    <path class="cls-1" d="m25.64,0C11.48,0,0,11.48,0,25.64s11.48,25.64,25.64,25.64,25.64-11.48,25.64-25.64S39.8,0,25.64,0Zm9.85,38.84h-19.14v-4.14l8.81-9.27c2.17-2.47,3.26-4.44,3.26-5.89,0-1.18-.26-2.08-.77-2.69-.51-.62-1.26-.92-2.24-.92s-1.75.41-2.35,1.23c-.6.82-.9,1.85-.9,3.08h-6.37c0-1.68.42-3.24,1.26-4.66s2.01-2.54,3.5-3.34c1.49-.8,3.16-1.21,5.01-1.21,2.96,0,5.25.68,6.85,2.05,1.6,1.37,2.4,3.33,2.4,5.89,0,1.08-.2,2.13-.6,3.15-.4,1.02-1.03,2.1-1.87,3.22-.85,1.12-2.21,2.63-4.1,4.51l-3.54,4.09h10.79v4.9Z"/>
  </g>
</svg>