<?xml version="1.0" encoding="UTF-8"?>
<svg id="Capa_2" data-name="Capa 2" xmlns="http://www.w3.org/2000/svg" viewBox="0 0 51.28 51.28">
  <defs>
    <style>
      .cls-1 {
        fill: #ea6300;
        stroke-width: 0px;
      }
    </style>
  </defs>
  <g id="Capa_1-2" data-name="Capa 1">
    <path class="cls-1" d="m25.64,0C11.48,0,0,11.48,0,25.64s11.48,25.64,25.64,25.64,25.64-11.48,25.64-25.64S39.8,0,25.64,0Zm7.14,37.53c-1.88,1.47-4.36,2.2-7.42,2.2-1.8,0-3.46-.34-5-1.03-1.54-.68-2.7-1.63-3.49-2.84-.79-1.21-1.19-2.59-1.19-4.13h6.38c0,.84.34,1.57,1.02,2.18.68.62,1.51.92,2.5.92,1.12,0,2.01-.31,2.67-.93.67-.62,1-1.42,1-2.38,0-1.38-.35-2.36-1.04-2.94-.69-.58-1.65-.87-2.86-.87h-3.09v-4.73h2.99c2.37,0,3.56-1.16,3.56-3.48,0-.9-.28-1.64-.85-2.21-.56-.57-1.36-.86-2.39-.86-.84,0-1.57.25-2.19.73-.62.49-.93,1.1-.93,1.83h-6.35c0-1.44.4-2.73,1.21-3.86.8-1.13,1.92-2.01,3.34-2.65,1.43-.63,2.99-.95,4.7-.95,3.05,0,5.45.7,7.19,2.09,1.74,1.39,2.62,3.31,2.62,5.74,0,1.18-.36,2.29-1.08,3.34-.72,1.05-1.77,1.9-3.15,2.55,1.46.53,2.6,1.33,3.43,2.4.83,1.07,1.24,2.4,1.24,3.98,0,2.45-.94,4.41-2.83,5.88Z"/>
  </g>
</svg>