<?xml version="1.0" encoding="UTF-8"?>
<svg id="Capa_2" data-name="Capa 2" xmlns="http://www.w3.org/2000/svg" viewBox="0 0 45.32 51.28">
  <defs>
    <style>
      .cls-1 {
        fill: #ea6300;
        stroke-width: 0px;
      }
    </style>
  </defs>
  <g id="Capa_1-2" data-name="Capa 1">
    <path class="cls-1" d="m.24,10.23C.24,7.2,1.22,4.76,3.19,2.9,5.17,1.04,7.81.11,11.13.11s6.02.92,7.97,2.77c1.95,1.85,2.92,4.35,2.92,7.51v2.42c0,3.03-.97,5.46-2.92,7.3-1.95,1.84-4.58,2.76-7.9,2.76s-5.94-.91-7.95-2.74C1.24,18.3.24,15.8.24,12.61v-2.39Zm7.3,2.58c0,1.16.32,2.1.97,2.82.65.72,1.55,1.08,2.69,1.08,2.35,0,3.53-1.49,3.53-4.48v-2c0-1.16-.31-2.11-.94-2.85-.63-.75-1.51-1.12-2.66-1.12s-1.97.36-2.62,1.09c-.65.72-.97,1.71-.97,2.96v2.5Zm1.81,38.47H0S35.98,0,35.98,0h9.34L9.34,51.28Zm14.16-13.52c0-3.05.99-5.49,2.98-7.33,1.98-1.84,4.62-2.76,7.92-2.76s5.99.91,7.97,2.72c1.97,1.82,2.96,4.35,2.96,7.6v2.35c0,3.05-.97,5.49-2.93,7.33-1.95,1.84-4.59,2.76-7.93,2.76s-5.94-.91-7.95-2.74c-2.01-1.83-3.01-4.33-3.01-7.51v-2.42Zm7.26,2.58c0,1.05.36,1.97,1.08,2.76.72.79,1.59,1.18,2.62,1.18,2.17,0,3.35-1.02,3.53-3.07l.03-3.44c0-1.18-.32-2.13-.97-2.85s-1.54-1.09-2.66-1.09-1.94.34-2.59,1.02c-.65.68-1,1.6-1.04,2.75v2.74Z"/>
  </g>
</svg>