<?xml version="1.0" encoding="UTF-8"?>
<svg id="Capa_2" data-name="Capa 2" xmlns="http://www.w3.org/2000/svg" viewBox="0 0 37.46 50.44">
  <defs>
    <style>
      .cls-1 {
        fill: #ea6300;
        stroke-width: 0px;
      }
    </style>
  </defs>
  <g id="Capa_1-2" data-name="Capa 1">
    <path class="cls-1" d="m35.02,8.12L20.92.55c-1.37-.73-3.01-.73-4.37,0L2.44,8.12C.94,8.92,0,10.49,0,12.19v18.83C0,33.51,1.04,35.87,2.87,37.54l12.74,11.67c1.77,1.62,4.48,1.62,6.25,0l12.74-11.67c1.83-1.67,2.87-4.04,2.87-6.52V12.19c0-1.7-.94-3.27-2.44-4.08Zm-3.87,12.86l-12.44,12.44c-.52.52-1.37.52-1.89,0l-8.97-8.97c-.52-.52-.52-1.37,0-1.89l2.08-2.08c.52-.52,1.37-.52,1.89,0l5.96,5.96,9.42-9.42c.52-.52,1.37-.52,1.89,0l2.06,2.06c.52.52.52,1.37,0,1.89Z"/>
  </g>
</svg>