<?xml version="1.0" encoding="UTF-8"?>
<svg id="Capa_2" data-name="Capa 2" xmlns="http://www.w3.org/2000/svg" viewBox="0 0 35.83 24.29">
  <defs>
    <style>
      .cls-1 {
        fill: #13123d;
        stroke-width: 0px;
      }
    </style>
  </defs>
  <g id="Capa_1-2" data-name="Capa 1">
    <g>
      <path class="cls-1" d="m17.85,21.46H7.05c-.09-1.66-.64-3.08-2.25-3.8-1.56-.69-2.99-.31-4.4.86,0-1.93-.05-3.71.05-5.48.01-.28.66-.73,1.03-.75,1.7-.08,3.4-.05,5.11-.03.78,0,1.19.45,1.2,1.23.02.78,0,1.55,0,2.44.48.02.88.06,1.27.06,3.61,0,7.22.05,10.83,0,.97-.01,1.47.27,1.52,1.3-2.31.36-3.5,1.75-3.56,4.19Z"/>
      <path class="cls-1" d="m17.09,15.67c.39-.47.62-.76.91-1.12-.81-.89-1.62-1.78-2.49-2.73-.34.29-.58.62-.9.74-.35.13-.78.06-1.18.08,0-.4-.17-.96.03-1.17.88-.94,1.85-1.81,2.85-2.64.2-.16.84-.12.97.05.19.25.25.81.09,1.06-.26.4-.75.66-1.18,1.01.84.94,1.51,1.71,2.21,2.44.17.18.48.23.73.34.07-.29.27-.62.2-.87-.43-1.54-.93-3.06-1.41-4.59-.6-1.92-1.2-3.83-1.81-5.75-.44-1.37-.7-1.57-2.1-1.57-2.66,0-5.32,0-7.98,0-1.37,0-1.75.39-1.75,1.78,0,1.57,0,3.13,0,4.71,2.01-.29,2.08-.24,2.73,1.75.29.87.58,1.74.87,2.62.02.05-.01.12-.03.24-.23-.05-.45-.14-.68-.15-.64-.04-1.43.16-1.89-.14-.45-.29-.57-1.09-.83-1.67-.56.44.41,1.66-1,1.79,0-.71,0-1.31,0-1.92,0-2.73,0-5.45,0-8.18,0-1.25.49-1.76,1.72-1.77C8.34,0,11.51.03,14.68,0c1.02,0,1.45.55,1.72,1.41,1.21,3.83,2.44,7.66,3.67,11.48.18.56.4,1.11.6,1.66.11-.02.21-.04.32-.05V.87h2.06v7.1c.86,0,1.6,0,2.34,0,2.69,0,5.39-.05,8.08.03.79.02,1.57.38,2.36.58-.02.1-.05.21-.07.31h-12.59v5.54q1.45.33,1.45,1.88c0,.71,0,1.43,0,2.15-.84-.39-1.64-.72-2.4-1.12-.2-.1-.37-.41-.41-.64-.14-.91-.68-1.1-1.51-1.05-1,.06-2.01.02-3.22.02Zm4.99-1.15c.47-.63.49-4.86.02-5.56-.48.64-.49,4.87-.02,5.56Z"/>
      <path class="cls-1" d="m0,21.03c0-1.83,1.4-3.25,3.22-3.26,1.84-.01,3.34,1.48,3.31,3.3-.03,1.78-1.52,3.23-3.3,3.22C1.43,24.28,0,22.84,0,21.03Zm4.52.01c.01-.72-.56-1.31-1.28-1.31-.72,0-1.3.58-1.25,1.32.04.74.44,1.21,1.21,1.25.73.04,1.3-.53,1.32-1.26Z"/>
      <path class="cls-1" d="m21.56,17.77c1.84-.02,3.26,1.36,3.28,3.19.03,1.83-1.35,3.29-3.16,3.33-1.83.04-3.35-1.43-3.36-3.26-.01-1.79,1.43-3.25,3.23-3.27Zm1.34,3.28c-.1-.79-.49-1.3-1.3-1.3-.8,0-1.29.52-1.29,1.28,0,.75.46,1.27,1.28,1.28.82,0,1.19-.51,1.31-1.25Z"/>
      <path class="cls-1" d="m14.23,15.58h-5.9v-1.89c.82,0,1.69,0,2.57,0,.54,0,1.09-.02,1.63,0,1.08.05,1.56.56,1.71,1.88Z"/>
    </g>
  </g>
</svg>