<?xml version="1.0" encoding="UTF-8"?>
<svg id="Capa_2" data-name="Capa 2" xmlns="http://www.w3.org/2000/svg" viewBox="0 0 44.4 25.24">
  <defs>
    <style>
      .cls-1 {
        fill: #13123d;
        stroke-width: 0px;
      }
    </style>
  </defs>
  <g id="Capa_1-2" data-name="Capa 1">
    <g>
      <path class="cls-1" d="m0,5.68h28.99c-.52,3.18-1.02,6.27-1.53,9.39-.44.02-.78.06-1.11.06-7.88,0-15.77-.01-23.65.02-.9,0-1.23-.25-1.36-1.15-.38-2.74-.87-5.47-1.34-8.31Z"/>
      <path class="cls-1" d="m30.34,21.69H14.02c-1.01-3.01-2.49-4.34-4.66-4.2-2.14.13-3.52,1.49-4.2,4.25-.99,0-2.03.05-3.06-.04-.28-.02-.53-.48-.77-.75-.04-.05-.01-.16-.01-.25.11-4.9-.83-3.96,3.77-3.98,10.49-.05,20.98-.01,31.47-.03.77,0,1.41.09,1.82.81.57.99,1.43,1.29,2.54,1.19.96-.09,1.93-.02,3.1-.02,0,.82.07,1.61-.04,2.37-.04.27-.53.64-.83.66-1.3.07-2.6.03-4,.03-.51-2.56-1.87-4.28-4.64-4.23-2.15.04-3.47,1.44-4.17,4.18Z"/>
      <path class="cls-1" d="m29.53,3.2c3.39,0,6.67-.03,9.95.02,1.15.02,2.06.68,2.48,1.71,1.45,3.61,2.53,7.32,2.43,11.26,0,.3-.17.68-.39.87-.71.64-4.02.34-4.57-.45-.7-1-1.56-1.35-2.79-1.3-2.35.1-4.7.03-7.11.03V3.2Zm7.65,4.07c-.59,0-1.19-.08-1.75.03-.32.06-.77.39-.83.66-.66,2.92-.12,3.59,2.84,3.6.25,0,.51-.03.75.01,1.28.2,1.66-.34,1.63-1.61-.09-3.23.29-2.64-2.64-2.7Zm4.59.03c-.14-.04-.28-.07-.43-.11-.17.31-.44.61-.5.94-.09.58-.06,1.17-.07,1.76-.05,1.75.07,1.85,1.99,1.49-.33-1.37-.66-2.72-.99-4.08Z"/>
      <path class="cls-1" d="m27.46,4.25H3.56c4.12-.36,7.35-3.54,11.55-3.61.56-.01,1.12-.51,1.37-.63,1.62.47,3.01.86,4.4,1.28.4.12.9.18,1.16.45,1.29,1.36,2.95,1.83,4.7,2.14.14.03.27.14.72.38Z"/>
      <path class="cls-1" d="m38.24,21.81c-.02,1.97-1.62,3.49-3.6,3.43-1.93-.05-3.41-1.59-3.38-3.53.03-1.97,1.64-3.51,3.6-3.45,1.9.06,3.4,1.64,3.38,3.54Z"/>
      <path class="cls-1" d="m9.56,25.24c-1.96,0-3.44-1.47-3.47-3.42-.02-1.99,1.51-3.55,3.48-3.55,1.97,0,3.49,1.57,3.47,3.56-.03,1.95-1.52,3.41-3.47,3.41Z"/>
    </g>
  </g>
</svg>