<?xml version="1.0" encoding="UTF-8"?>
<svg id="Capa_2" data-name="Capa 2" xmlns="http://www.w3.org/2000/svg" viewBox="0 0 43.93 24.29">
  <defs>
    <style>
      .cls-1 {
        fill: #13123d;
        stroke-width: 0px;
      }
    </style>
  </defs>
  <g id="Capa_1-2" data-name="Capa 1">
    <g>
      <path class="cls-1" d="m.17,15.61c0-1.93-.07-3.51.04-5.07.04-.56.38-1.3.82-1.58.79-.52.93-1.2,1.01-2,.17-1.74.36-3.48.54-5.22C2.72.37,3.09.03,4.49.03c2.58,0,5.17.05,7.75-.02,1.2-.03,1.74.49,1.98,1.59.41,1.91.84,3.82,1.36,5.7.11.39.62.91.98.94,3.31.23,6.64.39,9.96.52.63.02,1.28-.26,1.91-.23.6.03,1.34.11,1.75.48,2.12,1.92,4.17,3.93,6.22,5.93.3.3.48.72.72,1.08-.13.09-.25.18-.38.27-1.94-1.71-3.89-3.43-5.83-5.14-.14.15-.2.2-.24.26-.95,1.8-.06,2.95,1.32,4.03.98.76,1.78,1.75,2.73,2.56.68.57.9,1.09.37,1.89-.22.33-.24.78-.4,1.34-1.37-1.14-2.71-2.24-4.02-3.37-.17-.15-.21-.44-.33-.65-.72-1.3-1.45-2.61-2.27-4.08.18-.87.44-2.09.73-3.52h-6.32c1.73,1.1,4.13.84,4.55,3.46-2.19-.89-4.2-.74-6.03.51-1.85,1.26-2.68,3.11-2.72,5.39h-6.46c-.23-3.09-1.57-5.37-4.68-6.22-2.85-.78-5.01.42-6.97,2.87Zm15.92-2.24c-.88-3.89-1.68-7.66-2.62-11.4-.11-.45-.91-.99-1.43-1.03-1.65-.13-3.33-.04-4.99-.06-3.8-.03-3.21-.11-3.65,3.23-.25,1.88-.46,3.77-.7,5.79.55-.12.9-.2,1.26-.27,3.13-.62,5.99.02,8.03,2.5,1.18,1.43,2.41,1.45,4.1,1.24Z"/>
      <path class="cls-1" d="m24.49,13c3.18.03,5.6,2.48,5.57,5.66-.02,3.13-2.53,5.64-5.64,5.64-3.14,0-5.69-2.6-5.65-5.76.04-3.12,2.55-5.55,5.72-5.53Zm2.15,5.65c.02-1.25-.91-2.22-2.16-2.24-1.22-.03-2.25.93-2.3,2.13-.05,1.23,1,2.31,2.25,2.31,1.24,0,2.19-.95,2.21-2.2Z"/>
      <path class="cls-1" d="m5.6,24.29C2.49,24.28,0,21.78,0,18.63c0-3.19,2.4-5.62,5.58-5.63,3.15,0,5.68,2.46,5.71,5.56.02,3.15-2.55,5.74-5.69,5.74Zm-.01-3.44c1.2.02,2.23-.96,2.26-2.16.04-1.27-.98-2.29-2.26-2.28-1.24.01-2.2.98-2.2,2.21,0,1.21.99,2.21,2.2,2.23Z"/>
      <path class="cls-1" d="m40.69,14.43c-1.24,3.93.51,6.91,3.24,9.87-2.88-.25-5.41-.47-7.7-1.75-.96-.54-1.18-1.61-.64-2.75.72-1.5,1.36-3.07,2.34-4.4.49-.66,1.64-.82,2.49-1.2.09.08.18.15.26.23Z"/>
    </g>
  </g>
</svg>